<svg xmlns="http://www.w3.org/2000/svg" viewBox="0 0 1400 360" role="img" aria-label="Uniputumayo — Institución Universitaria del Putumayo">
  <!-- Isotipo: U -->
  <g fill="none" stroke="#2272A6" stroke-width="58">
    <path d="M85 30 V185 a115 115 0 0 0 230 0 V150" />
  </g>
  <!-- Órbita verde -->
  <circle cx="318" cy="78" r="60" fill="none" stroke="#8CC63E" stroke-width="7"
          stroke-dasharray="290 87" stroke-linecap="round" transform="rotate(-50 318 78)" />
  <!-- Flor / turbina verde -->
  <g transform="translate(318 78)">
    <g stroke="#8CC63E" stroke-width="7" stroke-linecap="round">
      <line x1="0" y1="-18" x2="0" y2="-36" transform="rotate(0)" />
      <line x1="0" y1="-18" x2="0" y2="-36" transform="rotate(22.5)" />
      <line x1="0" y1="-18" x2="0" y2="-36" transform="rotate(45)" />
      <line x1="0" y1="-18" x2="0" y2="-36" transform="rotate(67.5)" />
      <line x1="0" y1="-18" x2="0" y2="-36" transform="rotate(90)" />
      <line x1="0" y1="-18" x2="0" y2="-36" transform="rotate(112.5)" />
      <line x1="0" y1="-18" x2="0" y2="-36" transform="rotate(135)" />
      <line x1="0" y1="-18" x2="0" y2="-36" transform="rotate(157.5)" />
      <line x1="0" y1="-18" x2="0" y2="-36" transform="rotate(180)" />
      <line x1="0" y1="-18" x2="0" y2="-36" transform="rotate(202.5)" />
      <line x1="0" y1="-18" x2="0" y2="-36" transform="rotate(225)" />
      <line x1="0" y1="-18" x2="0" y2="-36" transform="rotate(247.5)" />
      <line x1="0" y1="-18" x2="0" y2="-36" transform="rotate(270)" />
      <line x1="0" y1="-18" x2="0" y2="-36" transform="rotate(292.5)" />
      <line x1="0" y1="-18" x2="0" y2="-36" transform="rotate(315)" />
      <line x1="0" y1="-18" x2="0" y2="-36" transform="rotate(337.5)" />
    </g>
    <circle r="12" fill="none" stroke="#8CC63E" stroke-width="6" />
  </g>
  <!-- Separador -->
  <line x1="432" y1="38" x2="432" y2="322" stroke="#C9CACB" stroke-width="4" />
  <!-- Texto -->
  <g font-family="'Arial Rounded MT Bold','Nunito',Arial,sans-serif" font-weight="800" fill="#2272A6">
    <text x="468" y="132" font-size="112">UNI</text>
    <text x="468" y="244" font-size="112">PUTUMAYO</text>
  </g>
  <text x="470" y="305" font-family="Arial, sans-serif" font-size="33" letter-spacing="3.4" fill="#808285">INSTITUCIÓN UNIVERSITARIA DEL PUTUMAYO</text>
</svg>
