<svg xmlns="http://www.w3.org/2000/svg" viewBox="0 0 400 300" role="img" aria-label="Imagen no disponible — Herbario HEAA, Uniputumayo">
  <rect width="400" height="300" fill="#F2F7F3"/>
  <rect x="0" y="0" width="400" height="6" fill="#8CC63E"/>
  <!-- Flor / turbina institucional -->
  <g transform="translate(200 128)">
    <circle r="46" fill="none" stroke="#8CC63E" stroke-width="5"
            stroke-dasharray="222 67" stroke-linecap="round" transform="rotate(-50)"/>
    <g stroke="#8CC63E" stroke-width="5" stroke-linecap="round">
      <line y1="-14" y2="-27" transform="rotate(0)"/>
      <line y1="-14" y2="-27" transform="rotate(22.5)"/>
      <line y1="-14" y2="-27" transform="rotate(45)"/>
      <line y1="-14" y2="-27" transform="rotate(67.5)"/>
      <line y1="-14" y2="-27" transform="rotate(90)"/>
      <line y1="-14" y2="-27" transform="rotate(112.5)"/>
      <line y1="-14" y2="-27" transform="rotate(135)"/>
      <line y1="-14" y2="-27" transform="rotate(157.5)"/>
      <line y1="-14" y2="-27" transform="rotate(180)"/>
      <line y1="-14" y2="-27" transform="rotate(202.5)"/>
      <line y1="-14" y2="-27" transform="rotate(225)"/>
      <line y1="-14" y2="-27" transform="rotate(247.5)"/>
      <line y1="-14" y2="-27" transform="rotate(270)"/>
      <line y1="-14" y2="-27" transform="rotate(292.5)"/>
      <line y1="-14" y2="-27" transform="rotate(315)"/>
      <line y1="-14" y2="-27" transform="rotate(337.5)"/>
    </g>
    <circle r="9" fill="none" stroke="#8CC63E" stroke-width="4.5"/>
  </g>
  <text x="200" y="222" text-anchor="middle" font-family="Arial, sans-serif" font-weight="bold" font-size="22" fill="#2272A6">Herbario HEAA</text>
  <text x="200" y="248" text-anchor="middle" font-family="Arial, sans-serif" font-size="12" letter-spacing="1.5" fill="#808285">INSTITUCIÓN UNIVERSITARIA DEL PUTUMAYO</text>
</svg>
